<svg width="24" height="24" viewBox="0 0 24 24" fill="none" xmlns="http://www.w3.org/2000/svg">
<g clip-path="url(#clip0_139_133)">
<path d="M0 12.756V11.2584C0.0144 11.1888 0.0312 11.1216 0.0408 11.0544C0.1224 10.5144 0.1704 9.96719 0.2808 9.43679C1.716 2.85599 8.4 -1.28641 14.892 0.362394C17.5551 1.03158 19.9082 2.59384 21.5585 4.78847C23.2088 6.9831 24.0565 9.67734 23.9602 12.4215C23.8639 15.1657 22.8293 17.7939 21.0292 19.8674C19.2291 21.9409 16.7723 23.3344 14.0688 23.8152C13.632 23.8896 13.1904 23.94 12.7536 24H11.2512C11.2013 23.9824 11.1499 23.9696 11.0976 23.9616C10.0837 23.8998 9.08392 23.6929 8.1288 23.3472C3.7688 21.7344 1.1224 18.6504 0.1896 14.0952C0.0984 13.6536 0.0624 13.2 0 12.756ZM13.1616 12.8112H13.4256C13.956 12.8112 14.4888 12.8112 15.0192 12.8112C15.2328 12.8112 15.336 12.7152 15.336 12.4992C15.336 11.8512 15.336 11.2032 15.336 10.5552C15.336 10.3152 15.252 10.2312 15.0096 10.2264C14.7216 10.2264 14.4312 10.2264 14.1432 10.2264H13.1832C13.1832 9.74639 13.1832 9.29279 13.1832 8.84159C13.1832 8.39039 13.3752 8.17679 13.8504 8.15999C14.2656 8.14319 14.6784 8.13599 15.0936 8.13359C15.3192 8.13359 15.4272 8.03039 15.4272 7.80959V6.02879C15.4339 5.98385 15.4301 5.93796 15.4161 5.89474C15.402 5.85153 15.3781 5.81218 15.3462 5.77982C15.3143 5.74745 15.2753 5.72295 15.2323 5.70827C15.1893 5.69358 15.1434 5.6891 15.0984 5.69519C14.5128 5.69519 13.9248 5.67359 13.3416 5.70719C11.856 5.79839 10.8816 6.61919 10.5888 8.03039C10.533 8.4005 10.5073 8.77453 10.512 9.14879C10.5 9.50399 10.512 9.86879 10.512 10.2336C9.9888 10.2336 9.4992 10.2336 9.0072 10.2336C8.6832 10.2336 8.604 10.3128 8.6016 10.6344C8.6016 11.172 8.6016 11.7096 8.6016 12.2496C8.6016 12.7896 8.6016 12.8208 9.1824 12.8208H10.512V13.1256C10.512 14.7176 10.512 16.3104 10.512 17.904C10.512 18.2448 10.5768 18.3144 10.9224 18.3168C11.508 18.3168 12.0936 18.3168 12.6792 18.3168C13.1184 18.3168 13.176 18.2568 13.176 17.8152V12.8112H13.1616Z" fill="#6C1B84"/>
</g>
<defs>
<clipPath id="clip0_139_133">
<rect width="24" height="24" fill="white"/>
</clipPath>
</defs>
</svg>
