<svg width="24" height="24" viewBox="0 0 24 24" fill="none" xmlns="http://www.w3.org/2000/svg">
<g clip-path="url(#clip0_139_143)">
<path d="M12.7632 24.0001H11.2632C10.9704 23.9641 10.6752 23.9329 10.3824 23.8921C7.86629 23.5438 5.52492 22.4082 3.69357 20.648C1.86223 18.8878 0.634854 16.5932 0.1872 14.0929C0.1056 13.6489 0.0624 13.2001 0 12.7513V11.2513C0.0768 10.7281 0.132 10.2001 0.24 9.68166C0.738353 7.15288 2.03765 4.85176 3.94558 3.11889C5.85351 1.38602 8.26868 0.313491 10.8336 0.0600564C13.3968 -0.179944 15.8376 0.283256 18.0336 1.63446C22.3344 4.28406 24.3288 8.16006 23.9568 13.2001C23.7723 15.5414 22.8563 17.7655 21.3384 19.5577C19.5282 21.8116 16.9563 23.3259 14.1072 23.8153C13.6632 23.8945 13.212 23.9401 12.7632 24.0001ZM5.0832 12.0001C5.1264 13.1401 5.1288 14.2897 5.2248 15.4321C5.27159 16.2578 5.6062 17.041 6.17049 17.6456C6.73478 18.2502 7.49307 18.6381 8.3136 18.7417C9.18931 18.8492 10.0714 18.8957 10.9536 18.8809C12.4464 18.8809 13.9416 18.8809 15.4296 18.7825C16.0824 18.7581 16.7151 18.5499 17.2548 18.1818C17.7944 17.8137 18.2191 17.3006 18.48 16.7017C18.7365 16.1462 18.8707 15.5422 18.8736 14.9305C18.8976 13.3129 18.9104 11.6961 18.912 10.0801C18.9096 9.5725 18.8808 9.06541 18.8256 8.56086C18.636 6.81126 17.448 5.52006 15.7128 5.26326C14.8444 5.15444 13.9694 5.10792 13.0944 5.12406C11.592 5.12406 10.0896 5.12406 8.5944 5.21766C7.71636 5.26299 6.88601 5.63106 6.26277 6.25121C5.63952 6.87135 5.26731 7.69985 5.2176 8.57766C5.1216 9.71766 5.1216 10.8601 5.0784 12.0001H5.0832Z" fill="#6C1B84"/>
<path d="M6.33594 12.0002C6.36714 10.9538 6.36954 9.9146 6.43194 8.8802C6.52074 7.4402 7.43274 6.4802 8.87514 6.449C10.9551 6.3946 13.0407 6.3946 15.1319 6.449C16.6055 6.4898 17.5463 7.433 17.5871 8.9114C17.6447 10.9922 17.6399 13.0778 17.5871 15.1514C17.5487 16.5746 16.5887 17.4986 15.1655 17.5802C13.0657 17.7002 10.9606 17.7002 8.86074 17.5802C7.43994 17.4938 6.51834 16.5602 6.43194 15.1418C6.36954 14.0906 6.36714 13.0346 6.33594 12.0002ZM12.0167 15.5378C12.7154 15.5359 13.3979 15.327 13.9779 14.9375C14.558 14.548 15.0096 13.9954 15.2758 13.3494C15.5419 12.7034 15.6107 11.993 15.4734 11.3079C15.3361 10.6229 14.9989 9.99385 14.5044 9.50031C14.0098 9.00677 13.3801 8.67084 12.6948 8.53494C12.0094 8.39904 11.2992 8.46926 10.6537 8.73674C10.0083 9.00423 9.45655 9.45697 9.06823 10.0378C8.67991 10.6186 8.47241 11.3015 8.47194 12.0002C8.4713 12.4656 8.56261 12.9264 8.74062 13.3564C8.91862 13.7864 9.17982 14.1769 9.50921 14.5056C9.83859 14.8343 10.2297 15.0947 10.66 15.2719C11.0903 15.449 11.5514 15.5394 12.0167 15.5378ZM15.6863 9.1466C15.8499 9.14994 16.0108 9.10445 16.1484 9.01595C16.286 8.92744 16.3942 8.79993 16.459 8.64969C16.5238 8.49945 16.5424 8.33331 16.5123 8.17246C16.4823 8.01162 16.405 7.86338 16.2904 7.74666C16.1757 7.62994 16.0288 7.55004 15.8685 7.51716C15.7083 7.48429 15.5418 7.49992 15.3904 7.56207C15.2391 7.62422 15.1097 7.73007 15.0188 7.8661C14.9278 8.00214 14.8795 8.16218 14.8799 8.3258C14.8793 8.54121 14.9636 8.74819 15.1145 8.90184C15.2655 9.0555 15.471 9.14345 15.6863 9.1466Z" fill="#6C1B84"/>
<path d="M14.3113 11.9999C14.3108 12.455 14.1753 12.8998 13.9218 13.2778C13.6683 13.6559 13.3084 13.9502 12.8875 14.1235C12.4666 14.2968 12.0038 14.3412 11.5576 14.2513C11.1115 14.1613 10.702 13.941 10.3812 13.6181C10.0604 13.2953 9.84261 12.8845 9.75544 12.4377C9.66828 11.991 9.71567 11.5285 9.8916 11.1087C10.0675 10.6889 10.3641 10.3308 10.7437 10.0797C11.1233 9.82866 11.569 9.6959 12.0241 9.69827C12.6322 9.70145 13.2143 9.94541 13.643 10.3768C14.0716 10.8081 14.3119 11.3917 14.3113 11.9999Z" fill="#6C1B84"/>
</g>
<defs>
<clipPath id="clip0_139_143">
<rect width="24" height="24" fill="white"/>
</clipPath>
</defs>
</svg>
