<svg width="24" height="24" viewBox="0 0 24 24" fill="none" xmlns="http://www.w3.org/2000/svg">
<g clip-path="url(#clip0_139_138)">
<path d="M12.7415 24H11.2415C11.1742 23.9829 11.1061 23.9693 11.0375 23.9592C8.76932 23.8134 6.59679 22.9917 4.79988 21.6C1.22148 18.8016 -0.400916 15.12 0.0838844 10.5984C0.448684 7.17838 2.09748 4.42318 4.85508 2.38078C6.72707 0.971052 8.97498 0.147952 11.3147 0.0155245C13.6544 -0.116903 15.9808 0.447289 17.9999 1.63678C21.2111 3.50638 23.1503 6.30958 23.8319 9.96718C23.9111 10.3944 23.9519 10.8312 24.0119 11.2608V12.7608C23.9945 12.8197 23.9817 12.8799 23.9735 12.9408C23.8342 14.9664 23.1628 16.9193 22.0271 18.6024C21.1345 19.9726 19.9679 21.1432 18.6007 22.0403C17.2335 22.9375 15.6953 23.5418 14.0831 23.8152C13.6391 23.8968 13.1999 23.94 12.7415 24ZM10.2407 9.35998V16.6992H12.6791V16.4064C12.6791 15.104 12.6791 13.8016 12.6791 12.4992C12.6758 12.2994 12.716 12.1013 12.7968 11.9186C12.8776 11.7358 12.9971 11.5728 13.1471 11.4408C13.2977 11.2941 13.4841 11.1895 13.6878 11.1376C13.8915 11.0856 14.1053 11.088 14.3077 11.1447C14.5102 11.2013 14.6942 11.3101 14.8414 11.4602C14.9885 11.6103 15.0937 11.7965 15.1463 12C15.2208 12.2941 15.2571 12.5966 15.2543 12.9C15.2543 14.0784 15.2543 15.2568 15.2543 16.4328V16.704H17.7095V16.512C17.7095 15.156 17.7095 13.7976 17.7095 12.432C17.7053 12.1257 17.6731 11.8204 17.6135 11.52C17.3879 10.3752 16.7999 9.52558 15.5999 9.26878C14.4695 9.02878 13.4687 9.25198 12.7607 10.26C12.7306 10.2912 12.6967 10.3186 12.6599 10.3416V9.35998H10.2407ZM8.85588 16.6992C8.86653 16.6533 8.87454 16.6068 8.87988 16.56C8.87988 14.2296 8.87988 11.8968 8.87988 9.56398C8.87988 9.38878 8.81028 9.35998 8.65668 9.35998C7.97748 9.35998 7.29828 9.35998 6.61908 9.35998C6.55797 9.36294 6.49707 9.36936 6.43668 9.37918V16.6992H8.85588ZM7.65588 5.81518C6.86868 5.81518 6.31428 6.29518 6.27108 7.01518C6.25261 7.34556 6.36483 7.66996 6.58352 7.91829C6.80222 8.16661 7.10982 8.31895 7.43988 8.34238C7.76532 8.40398 8.10205 8.3439 8.3861 8.17356C8.67015 8.00322 8.88174 7.73448 8.98068 7.41838C9.21108 6.54958 8.60148 5.81518 7.66308 5.81518H7.65588Z" fill="#6C1B84"/>
</g>
<defs>
<clipPath id="clip0_139_138">
<rect width="24" height="24" fill="white"/>
</clipPath>
</defs>
</svg>
