<svg width="281" height="64" viewBox="0 0 281 64" fill="none" xmlns="http://www.w3.org/2000/svg">
<path d="M40.6998 35.5362C48.3399 35.1334 55.1469 33.7738 58.6671 26.207C58.2507 28.9648 56.8309 31.4719 54.68 33.2474C52.5513 35.0785 49.9833 35.994 47.3557 36.6577C47.3557 36.8225 47.3054 36.9461 47.3557 36.969C49.3882 38.4293 49.8414 40.5075 49.6949 42.8421C49.6308 43.8858 49.6537 44.9387 49.6491 45.9824C49.6375 48.3023 50.4247 50.5556 51.8784 52.3636C52.1439 52.7024 52.3911 53.0594 52.7253 53.508C50.2076 55.4535 47.5571 55.1148 44.9433 54.2542C41.2537 53.032 38.6216 50.6974 37.9258 46.6004C40.7181 49.8322 43.7943 52.4277 48.6924 51.8967C47.1131 49.6079 47.2321 47.2504 47.3191 44.8746C47.4931 39.6515 46.2708 37.8159 41.3682 35.9436C41.272 35.9024 41.1988 35.8246 40.6998 35.5362Z" fill="#350C41"/>
<path d="M30.1284 19.1345C30.5853 19.1291 31.0387 19.2138 31.4629 19.3836C31.8871 19.5534 32.2736 19.8052 32.6005 20.1244C32.9274 20.4436 33.1882 20.8241 33.368 21.2441C33.5478 21.6642 33.6432 22.1155 33.6486 22.5724C33.654 23.0292 33.5694 23.4827 33.3995 23.9068C33.2297 24.331 32.978 24.7176 32.6588 25.0444C32.3395 25.3713 31.959 25.6321 31.539 25.812C31.119 25.9918 30.6677 26.0871 30.2108 26.0926C29.3103 26.0716 28.4532 25.7017 27.8202 25.0609C27.1872 24.4202 26.8277 23.5587 26.8176 22.658C26.8075 21.7574 27.1476 20.888 27.7661 20.2332C28.3846 19.5784 29.2332 19.1895 30.133 19.1483L30.1284 19.1345Z" fill="#85529C"/>
<path d="M55.6109 22.1146L56.8652 21.9772C46.2359 20.7092 37.3461 24.1791 30.1455 32.0435C22.9403 24.1791 14.0551 20.7092 3.42578 21.9727C3.84235 22.0184 4.25891 22.0688 4.68006 22.11C13.991 23.0255 21.7089 27.0035 27.8979 34.0119L28.0672 34.2041C28.2792 34.4146 28.4095 34.6937 28.4346 34.9914C28.4598 35.2891 28.3782 35.5861 28.2046 35.8292C26.6856 38.8001 25.7958 42.0523 25.5907 45.3827C25.5907 45.5567 25.5907 45.7352 25.5907 45.9091C25.5907 46.0831 25.5907 46.1335 25.5907 46.2433C25.5907 46.3532 25.5907 46.463 25.5907 46.5683C25.5907 46.8476 25.5907 47.1268 25.5907 47.4106C25.5907 47.7356 25.5907 48.0652 25.6228 48.3902C25.625 48.4131 25.625 48.4361 25.6228 48.4589C25.6228 48.729 25.6685 49.1684 25.6914 49.4385C25.6914 49.466 25.6914 49.4934 25.6914 49.5255C25.6914 49.7086 25.7281 49.8917 25.7464 50.0748C26.2097 53.8317 27.2424 57.4961 28.8088 60.9421C28.969 61.3083 29.1476 61.6745 29.3444 62.0591C29.5916 62.6175 29.8434 63.1943 30.0997 63.8077L30.1775 63.6612C30.2004 63.7116 30.2233 63.7574 30.2508 63.8077C30.5071 63.1943 30.7589 62.6175 31.0061 62.0591C31.2029 61.6745 31.3814 61.3083 31.5417 60.9421C33.1081 57.4961 34.1407 53.8317 34.6041 50.0748C34.6041 49.8917 34.6453 49.7086 34.6636 49.5255C34.6636 49.4934 34.6636 49.466 34.6636 49.4385C34.6636 49.1684 34.7185 48.729 34.7323 48.4589C34.7323 48.4589 34.7323 48.4131 34.7323 48.3902C34.7323 48.0652 34.7597 47.7356 34.7643 47.4106C34.7643 47.1268 34.7643 46.8476 34.7643 46.5683C34.7643 46.463 34.7643 46.3532 34.7643 46.2433V45.9091C34.7643 45.7352 34.7643 45.5567 34.7643 45.3827C34.5629 42.0549 33.6778 38.8043 32.1642 35.8338C31.8529 35.2158 31.8117 34.7718 32.297 34.2087L32.4663 34.0164C38.5775 27.0081 46.3 23.0118 55.6109 22.1146Z" fill="#85529C"/>
<path d="M19.7166 35.5362C12.0765 35.1334 5.26954 33.7738 1.75391 26.207C2.16867 28.9643 3.58687 31.4714 5.73646 33.2474C7.86964 35.0785 10.4377 35.994 13.0607 36.6577C13.0607 36.8225 13.111 36.9461 13.0836 36.969C11.0511 38.4293 10.5933 40.5075 10.7398 42.8421C10.8085 43.8858 10.7856 44.9387 10.7902 45.9824C10.8018 48.3023 10.0146 50.5556 8.56086 52.3636C8.29536 52.7024 8.04816 53.0594 7.714 53.508C10.2271 55.4535 12.8822 55.1148 15.496 54.2542C19.1856 53.032 21.8177 50.6974 22.5135 46.6004C19.7212 49.8322 16.6404 52.4277 11.7469 51.8967C13.3262 49.6079 13.2072 47.2504 13.1202 44.8746C12.9462 39.6515 14.1685 37.8159 19.0711 35.9436C19.1489 35.9024 19.2268 35.8246 19.7166 35.5362Z" fill="#350C41"/>
<path d="M30.2854 19.1345C29.3627 19.1248 28.4739 19.482 27.8146 20.1276C27.1553 20.7732 26.7794 21.6542 26.7697 22.5769C26.76 23.4996 27.1172 24.3884 27.7628 25.0477C28.4084 25.707 29.2894 26.0828 30.2121 26.0925C31.1126 26.0715 31.9697 25.7017 32.6027 25.0609C33.2357 24.4202 33.5952 23.5586 33.6053 22.658C33.6154 21.7573 33.2753 20.888 32.6568 20.2332C32.0383 19.5784 31.1897 19.1894 30.2899 19.1483L30.2854 19.1345Z" fill="#350C41"/>
<path d="M20.9284 22.8104C20.1838 22.6306 19.4598 22.3744 18.7678 22.0459C16.6213 21.074 14.738 19.6035 13.2746 17.7567C12.2825 16.5002 11.5088 15.0858 10.9858 13.5727C10.4839 12.0542 10.2079 10.4702 10.1664 8.87147L10.1389 8.0063L10.9949 7.89186C11.2421 7.85981 11.4527 7.84608 11.6404 7.83693C11.828 7.82777 12.0478 7.83693 12.2492 7.81404C12.652 7.81404 13.0549 7.81404 13.4531 7.84608C14.2538 7.90302 15.0493 8.01776 15.8335 8.1894C17.4044 8.53461 18.9056 9.14285 20.2738 9.98842C21.6216 10.834 22.8024 11.9201 23.7574 13.1928C24.6728 14.4463 25.3664 15.8475 25.8082 17.3355C25.387 16.6947 24.975 16.0629 24.5081 15.477L24.1602 15.0421L23.8032 14.6485C23.5697 14.3646 23.2996 14.1083 23.0433 13.8474C22.0076 12.8359 20.8236 11.9884 19.5322 11.3342C18.2522 10.7015 16.8878 10.256 15.481 10.0113C14.779 9.88583 14.0694 9.80783 13.357 9.77785C12.9999 9.75496 12.6429 9.75038 12.2904 9.77785C12.1164 9.77785 11.9379 9.77785 11.764 9.77785C11.59 9.77785 11.4069 9.80531 11.2787 9.81905L12.1073 8.83943C12.1417 10.2565 12.354 11.6637 12.739 13.028C12.9405 13.7064 13.1883 14.3702 13.4806 15.0147C13.7765 15.6619 14.1176 16.2876 14.5014 16.8869C15.2914 18.1029 16.2328 19.2134 17.3029 20.192C18.4076 21.2002 19.624 22.0787 20.9284 22.8104Z" fill="#85529C"/>
<path d="M8.79365 40.4435C8.58009 40.7355 8.33441 41.0027 8.06123 41.24C7.92848 41.3681 7.77741 41.4734 7.63551 41.5924C7.4936 41.7115 7.33338 41.803 7.17774 41.9083C6.53907 42.3062 5.83809 42.594 5.10407 42.7597C4.3539 42.9339 3.57824 42.9695 2.81525 42.865C2.43216 42.8164 2.05391 42.7352 1.68457 42.6224C1.49928 42.5741 1.31855 42.5098 1.14441 42.4302L0.608826 42.215L0 41.9678L0.238037 41.3269C0.307347 41.1264 0.389927 40.9306 0.48523 40.741C0.568315 40.5648 0.66155 40.3937 0.764466 40.2283C0.860597 40.0589 0.975038 39.9033 1.08032 39.7431C1.18561 39.5829 1.31378 39.4364 1.4328 39.2853C1.93179 38.6971 2.53171 38.2026 3.20435 37.825L3.45612 37.6786L3.72162 37.5641C3.90015 37.4909 4.06952 37.4039 4.25263 37.349L4.80195 37.1979C4.89361 37.173 4.98692 37.1547 5.08118 37.143L5.36042 37.1064C5.73074 37.0581 6.10511 37.0489 6.47736 37.0789C6.83968 37.1108 7.1992 37.169 7.55311 37.2528L7.02668 37.3673C6.85294 37.3913 6.68146 37.4296 6.51398 37.4817C6.18273 37.5685 5.85711 37.6755 5.53895 37.8022C4.92595 38.0397 4.35315 38.3701 3.84064 38.7818C3.33794 39.1758 2.89266 39.638 2.5177 40.1551L2.24762 40.5487C2.16522 40.6907 2.07367 40.8188 2.00501 40.9653C1.92304 41.1017 1.84817 41.2423 1.7807 41.3865C1.71749 41.5178 1.66096 41.6522 1.61133 41.7893L1.23596 40.9058C1.81036 41.1758 2.41403 41.3786 3.03498 41.51C3.3462 41.5771 3.66106 41.6261 3.97797 41.6565C4.13361 41.6565 4.29383 41.6565 4.43573 41.6565C4.51813 41.6565 4.59595 41.6565 4.67835 41.6565H4.91639C5.57961 41.6051 6.23429 41.4745 6.86646 41.2674C7.53358 41.0546 8.1789 40.7787 8.79365 40.4435Z" fill="#85529C"/>
<path d="M25.3915 55.0553C25.5448 55.9075 25.5448 56.7803 25.3915 57.6325C25.2378 58.5052 24.9375 59.3456 24.5034 60.1182L24.3432 60.4157C24.2837 60.5118 24.215 60.6034 24.1555 60.6949C24.0227 60.878 23.8991 61.0703 23.7572 61.2443C23.6153 61.4182 23.4597 61.583 23.2995 61.7524C23.1435 61.9142 22.9785 62.0671 22.8051 62.2101C22.4662 62.5128 22.1017 62.7854 21.7156 63.025C21.5265 63.1481 21.3292 63.2582 21.1251 63.3545L20.5208 63.6567L19.9441 63.9496L19.6053 63.3545C19.5321 63.2218 19.4863 63.1302 19.4359 63.0204C19.3856 62.9105 19.3398 62.8098 19.294 62.7045C19.2071 62.4894 19.1292 62.2788 19.056 62.0637C18.9168 61.6299 18.8112 61.1861 18.7401 60.7361C18.5951 59.8361 18.606 58.9179 18.7722 58.0216C18.9444 57.1359 19.283 56.2909 19.7701 55.5314C20.2517 54.8039 20.8594 54.1683 21.5645 53.6545C21.097 54.3409 20.7056 55.0761 20.3972 55.8472C20.1201 56.5817 19.952 57.3528 19.8983 58.136C19.8573 58.904 19.9204 59.6739 20.086 60.4249C20.167 60.8041 20.274 61.1773 20.4064 61.5418C20.4705 61.7249 20.5392 61.9034 20.617 62.082C20.6536 62.1689 20.6948 62.2559 20.736 62.3383C20.7772 62.4207 20.823 62.5168 20.8504 62.5672L19.9349 62.2651L20.4568 62.0087C20.6306 61.9499 20.8003 61.8795 20.9649 61.7982L21.4547 61.496L21.5783 61.4182L21.6927 61.3312L21.9216 61.1573C22.2251 60.9315 22.514 60.6869 22.7868 60.4249C22.9241 60.2875 23.0385 60.1319 23.1713 59.99C23.2354 59.9167 23.3041 59.8481 23.3636 59.7703L23.5329 59.5322C24.0151 58.8862 24.4135 58.1818 24.7185 57.4357C25.0249 56.6677 25.2504 55.87 25.3915 55.0553Z" fill="#85529C"/>
<path d="M17.9315 56.2409C17.7735 57.005 17.3719 57.6973 16.7871 58.2139C16.4917 58.4815 16.1506 58.6939 15.78 58.841C15.411 58.9901 15.0226 59.0857 14.6265 59.1248L14.4022 59.1523L14.3701 58.9325C14.306 58.5323 14.306 58.1243 14.3701 57.724C14.433 57.328 14.563 56.9456 14.7546 56.5934C14.9401 56.2417 15.1938 55.9304 15.5008 55.6778C15.642 55.5516 15.7953 55.4397 15.9586 55.3437C16.126 55.2526 16.2988 55.1716 16.4758 55.1011L16.2515 55.275C16.1767 55.3306 16.1049 55.3902 16.0364 55.4535C15.8965 55.5743 15.7664 55.706 15.6473 55.8472C15.4183 56.1208 15.2359 56.4301 15.1071 56.7627C14.9674 57.0911 14.8764 57.4381 14.837 57.7927C14.7888 58.1405 14.7888 58.4932 14.837 58.841L14.5807 58.6487C14.9328 58.6193 15.2793 58.5423 15.6107 58.4198C15.9407 58.306 16.25 58.139 16.5262 57.9255C17.1233 57.4851 17.6053 56.9072 17.9315 56.2409Z" fill="#85529C"/>
<path d="M35.1824 55.0553C35.3293 55.8706 35.561 56.6684 35.8736 57.4357C36.1747 58.1729 36.5668 58.8695 37.0409 59.5093L37.2103 59.7474C37.2698 59.8252 37.3385 59.8939 37.4026 59.9671C37.5353 60.109 37.6498 60.2646 37.7871 60.402C38.0579 60.6746 38.347 60.9284 38.6523 61.1619L38.8811 61.3358L38.9956 61.4228L39.1192 61.5006L39.609 61.8027C39.7719 61.9044 39.9417 61.9947 40.1171 62.0728L40.639 62.3292L39.7234 62.6313C39.7509 62.5809 39.8012 62.4848 39.8379 62.4024C39.8745 62.32 39.9203 62.233 39.9569 62.1461C40.0347 61.9675 40.1034 61.789 40.1675 61.6059C40.2998 61.2414 40.4069 60.8682 40.4879 60.489C40.6534 59.738 40.7165 58.968 40.6756 58.2001C40.6218 57.4169 40.4537 56.6458 40.1766 55.9113C39.872 55.1359 39.4837 54.396 39.0185 53.7049C39.7236 54.2186 40.3313 54.8542 40.8129 55.5817C41.3 56.3413 41.6386 57.1863 41.8108 58.072C41.977 58.9683 41.9879 59.8865 41.8429 60.7865C41.7696 61.236 41.664 61.6797 41.527 62.114C41.4538 62.3292 41.376 62.5397 41.289 62.7549C41.2432 62.8602 41.1974 62.9655 41.1471 63.0707C41.0967 63.176 41.0509 63.2722 40.9777 63.4049L40.639 64L40.0622 63.707L39.4579 63.4049C39.2538 63.3086 39.0565 63.1984 38.8674 63.0753C38.4814 62.8357 38.1168 62.5631 37.7779 62.2605C37.6046 62.1174 37.4395 61.9646 37.2835 61.8027C37.1279 61.6334 36.9814 61.464 36.8258 61.2946C36.6701 61.1252 36.5603 60.9284 36.4275 60.7453C36.368 60.6537 36.2948 60.5622 36.2398 60.4661L36.075 60.1685C35.6424 59.3958 35.3437 58.5553 35.1916 57.6829C35.0291 56.8148 35.026 55.9244 35.1824 55.0553Z" fill="#85529C"/>
<path d="M42.6461 56.2409C42.9638 56.9021 43.4346 57.478 44.0194 57.9209C44.2956 58.1345 44.6049 58.3015 44.9349 58.4153C45.2663 58.5378 45.6128 58.6148 45.9649 58.6442L45.7086 58.8364C45.7568 58.4887 45.7568 58.1359 45.7086 57.7881C45.6692 57.4335 45.5782 57.0865 45.4385 56.7582C45.3 56.4233 45.1066 56.1139 44.8663 55.8426C44.7459 55.7025 44.6159 55.5709 44.4772 55.449C44.4081 55.3845 44.3347 55.3249 44.2575 55.2704L44.0377 55.0965C44.2148 55.167 44.3875 55.248 44.555 55.3391C44.7182 55.4351 44.8716 55.547 45.0128 55.6733C45.3198 55.9259 45.5735 56.2371 45.7589 56.5888C45.9506 56.941 46.0806 57.3234 46.1434 57.7195C46.2053 58.1199 46.2053 58.5275 46.1434 58.928L46.1114 59.1477L45.8871 59.1202C45.491 59.0811 45.1026 58.9855 44.7335 58.8364C44.363 58.6894 44.0219 58.477 43.7264 58.2093C43.1416 57.6927 42.7401 57.0004 42.582 56.2363L42.6461 56.2409Z" fill="#85529C"/>
<path d="M5.1742 36.4518C4.7797 36.5327 4.37475 36.5497 3.97486 36.5021C3.56566 36.4528 3.16697 36.3384 2.79383 36.1634C2.41482 35.9881 2.06936 35.748 1.77301 35.4538C1.47544 35.1585 1.22115 34.8225 1.0177 34.4559L0.916992 34.2636L1.10468 34.1446C1.46565 33.9179 1.85936 33.7481 2.27197 33.6411C2.6794 33.5345 3.10242 33.5004 3.52167 33.5404C3.93697 33.5698 4.34192 33.6835 4.71186 33.8745C4.89463 33.9645 5.06924 34.0702 5.23371 34.1904C5.3985 34.3094 5.54041 34.4559 5.69147 34.5887L5.42597 34.4468C5.34297 34.3938 5.25569 34.3478 5.16504 34.3094C4.99145 34.2224 4.81074 34.1505 4.62488 34.0943C4.26324 33.9741 3.88442 33.9138 3.50336 33.9157C3.12812 33.9175 2.75508 33.973 2.39557 34.0805C2.03902 34.1862 1.69863 34.3402 1.38391 34.5383L1.45715 34.227C1.63401 34.5597 1.85413 34.8676 2.11176 35.1426C2.36349 35.4186 2.65698 35.6533 2.98151 35.8384C3.65287 36.2152 4.40478 36.4255 5.1742 36.4518Z" fill="#85529C"/>
<path d="M9.93803 43.0893C9.95395 43.4932 9.90291 43.8969 9.78697 44.2841C9.6728 44.6795 9.49499 45.0537 9.26054 45.3919C9.02717 45.7462 8.73267 46.0562 8.39079 46.3074C8.05245 46.5513 7.68094 46.7456 7.28758 46.8842L7.077 46.9666L6.99003 46.7606C6.82692 46.3677 6.72354 45.9527 6.68333 45.5292C6.64963 45.1097 6.6852 44.6875 6.78861 44.2795C6.89044 43.8667 7.07242 43.4778 7.3242 43.1351C7.44202 42.9702 7.57538 42.8169 7.72245 42.6774C7.86779 42.5422 8.02062 42.4154 8.18022 42.2974L7.99253 42.5309C7.92799 42.6047 7.86836 42.6827 7.814 42.7643C7.70277 42.9247 7.60332 43.093 7.51646 43.2679C7.33571 43.6033 7.21341 43.9671 7.15482 44.3436C7.09988 44.7154 7.09988 45.0933 7.15482 45.4651C7.20076 45.8333 7.29623 46.1937 7.43864 46.5363L7.14567 46.4081C7.49849 46.2897 7.83406 46.125 8.1436 45.9183C8.45625 45.7133 8.73567 45.4617 8.97215 45.1722C9.45857 44.5667 9.7901 43.8518 9.93803 43.0893Z" fill="#85529C"/>
<path d="M51.4951 40.4435C52.1035 40.7787 52.7428 41.0546 53.404 41.2674C54.0355 41.4679 54.6886 41.5924 55.3495 41.6382H55.5875C55.6699 41.6382 55.7523 41.6382 55.8301 41.6382C55.9904 41.6382 56.1506 41.6382 56.3108 41.6382C56.6183 41.6117 56.924 41.5674 57.2263 41.5055C57.8564 41.3772 58.4693 41.176 59.0528 40.9058L58.6774 41.7939C58.6362 41.6886 58.5676 41.5238 58.5035 41.391C58.4394 41.2583 58.3616 41.1072 58.2838 40.9699C58.2059 40.8326 58.119 40.6952 58.0411 40.5533L57.7665 40.1596C57.3926 39.6417 56.9472 39.1793 56.4436 38.7864C55.931 38.3746 55.3582 38.0442 54.7452 37.8067C54.4273 37.6794 54.1017 37.5724 53.7702 37.4863C53.6027 37.4342 53.4313 37.3959 53.2575 37.3719L52.7311 37.2574C53.085 37.1735 53.4445 37.1154 53.8068 37.0835C54.1777 37.0553 54.5505 37.066 54.9192 37.1155L55.1984 37.1521C55.2928 37.1634 55.3861 37.1817 55.4777 37.2071L56.027 37.3581C56.2101 37.4131 56.384 37.5 56.5626 37.5733L56.8281 37.6877L57.0753 37.8342C57.752 38.2154 58.3538 38.7164 58.8514 39.3128C58.9704 39.4638 59.0894 39.6149 59.2039 39.7705C59.3183 39.9262 59.4282 40.0864 59.5243 40.2558C59.6204 40.4251 59.7166 40.5899 59.8035 40.7685C59.8962 40.953 59.9787 41.1425 60.0507 41.3361L60.2842 41.977L59.6754 42.2242L59.1398 42.4393C58.9659 42.5197 58.7851 42.584 58.5996 42.6316C58.2303 42.7443 57.852 42.8255 57.4689 42.8742C56.706 42.9787 55.9303 42.943 55.1801 42.7689C54.4439 42.6008 53.7413 42.3099 53.1019 41.9083C52.9508 41.803 52.7952 41.7023 52.6441 41.5924C52.493 41.4826 52.3557 41.3681 52.223 41.24C51.949 41.0049 51.7046 40.7374 51.4951 40.4435Z" fill="#85529C"/>
<path d="M55.1113 36.4518C55.8861 36.4249 56.6431 36.2113 57.3177 35.8292C57.6436 35.6443 57.9386 35.4095 58.192 35.1334C58.4467 34.8571 58.6651 34.5494 58.842 34.2179L58.9153 34.5291C58.6017 34.332 58.263 34.178 57.9082 34.0714C57.5471 33.9642 57.1725 33.9088 56.7958 33.9066C56.2199 33.9152 55.6528 34.0496 55.1342 34.3003C55.044 34.3397 54.9568 34.3856 54.8732 34.4376L54.6123 34.5795C54.7573 34.4383 54.9102 34.3053 55.0701 34.1812C55.2345 34.061 55.4091 33.9554 55.5919 33.8654C55.9635 33.6744 56.3699 33.5607 56.7867 33.5312C57.2059 33.4914 57.6289 33.5255 58.0364 33.6319C58.4472 33.7398 58.8393 33.9096 59.1991 34.1355L59.3868 34.2545L59.2723 34.4467C59.0689 34.8121 58.8163 35.1479 58.5216 35.4447C58.223 35.7426 57.8743 35.9859 57.4916 36.1634C57.1201 36.3384 56.7229 36.4527 56.3152 36.5021C55.9138 36.5498 55.5073 36.5328 55.1113 36.4518Z" fill="#85529C"/>
<path d="M50.3545 43.0893C50.5091 43.8508 50.8451 44.5637 51.3341 45.1676C51.5706 45.4571 51.85 45.7088 52.1627 45.9137C52.4738 46.1204 52.8109 46.2851 53.1652 46.4036L52.8676 46.5317C53.0123 46.1899 53.1079 45.8292 53.1514 45.4606C53.209 45.0889 53.209 44.7107 53.1514 44.339C53.0928 43.9625 52.9706 43.5987 52.7898 43.2633C52.7047 43.0875 52.6051 42.9191 52.4923 42.7598C52.4379 42.6781 52.3783 42.6001 52.3137 42.5263L52.126 42.2928C52.2856 42.4108 52.4385 42.5376 52.5838 42.6728C52.7311 42.8134 52.8659 42.9666 52.9866 43.1305C53.2327 43.467 53.4115 43.8478 53.5131 44.2521C53.6188 44.6596 53.6544 45.0822 53.6184 45.5018C53.5803 45.9256 53.4769 46.341 53.3117 46.7331L53.2247 46.9391L53.0187 46.8567C52.6239 46.7181 52.2508 46.5239 51.9109 46.28C51.569 46.0287 51.2745 45.7187 51.0411 45.3644C50.8067 45.0262 50.6289 44.652 50.5147 44.2566C50.3987 43.8787 50.3445 43.4845 50.3545 43.0893Z" fill="#85529C"/>
<path d="M39.5127 22.8104C40.8114 22.0732 42.0216 21.1901 43.1199 20.1782C44.1888 19.1985 45.13 18.0881 45.9214 16.8732C46.3035 16.2728 46.6445 15.6473 46.9422 15.0009C47.2345 14.3564 47.4823 13.6926 47.6838 13.0142C48.0694 11.6503 48.2802 10.2428 48.3109 8.8257L49.1441 9.80531C49.0159 9.80531 48.8236 9.77327 48.6588 9.76411C48.494 9.75496 48.3064 9.76411 48.1324 9.76411C47.7799 9.76411 47.4229 9.76411 47.0658 9.76411C46.3534 9.7941 45.6437 9.87209 44.9418 9.99757C43.535 10.2422 42.1706 10.6877 40.8906 11.3205C39.5984 11.9735 38.4143 12.8211 37.3795 13.8336C37.1232 14.0946 36.8531 14.3509 36.6196 14.6347L36.2534 15.0559L35.9055 15.4907C35.4478 16.0767 35.0266 16.7084 34.6055 17.3493C35.0496 15.8693 35.7432 14.476 36.6563 13.2294C37.61 11.9557 38.7911 10.8693 40.1398 10.025C41.508 9.17947 43.0093 8.57123 44.5802 8.22602C45.3628 8.05471 46.1568 7.93997 46.9559 7.8827C47.3588 7.85523 47.7616 7.84608 48.1644 7.85066C48.3659 7.85066 48.5673 7.85066 48.7733 7.87355C48.9793 7.89643 49.1669 7.89643 49.4141 7.92848L50.2747 8.04292L50.2473 8.90809C50.2052 10.4941 49.9322 12.0654 49.437 13.5727C48.9102 15.0841 48.1368 16.4979 47.1482 17.7567C46.1702 18.988 45.0038 20.0571 43.6921 20.9244C43.0441 21.352 42.3629 21.727 41.655 22.0459C40.9686 22.3725 40.2508 22.6286 39.5127 22.8104Z" fill="#85529C"/>
<path d="M27.3842 14.6485C27.0471 14.1345 26.7677 13.5849 26.5511 13.0097C26.3282 12.4284 26.1537 11.8298 26.0292 11.2198C25.7775 9.97554 25.7265 8.69903 25.8782 7.43867C26.0435 6.15367 26.4258 4.90608 27.0088 3.74909C27.6109 2.59817 28.3825 1.54423 29.2977 0.622559L29.9019 0L30.5794 0.535584C30.7442 0.668336 30.8541 0.769044 30.9777 0.888062C31.1012 1.00708 31.2203 1.11237 31.3347 1.23139C31.5636 1.46485 31.7925 1.68915 31.9939 1.95465C32.409 2.45371 32.7884 2.98145 33.1291 3.53394C33.8043 4.6483 34.2842 5.86977 34.5482 7.1457C34.8025 8.41228 34.8133 9.71569 34.5803 10.9863C34.5116 11.2976 34.4567 11.6089 34.3605 11.9019L34.2278 12.3596L34.063 12.8174C33.9577 13.1104 33.8158 13.3896 33.6922 13.6734C33.5686 13.9572 33.3992 14.2136 33.2344 14.4791C33.3489 13.8748 33.4679 13.2843 33.532 12.6892L33.5778 12.2315L33.6052 11.7737C33.6052 11.4807 33.6052 11.1878 33.6052 10.8994C33.5882 9.75624 33.3999 8.62213 33.0467 7.5348C32.7003 6.47003 32.209 5.45803 31.5865 4.52729C31.2685 4.06349 30.9198 3.62152 30.5428 3.20435C30.3597 2.99378 30.1674 2.79236 29.9706 2.59552L29.673 2.28882C29.5769 2.20185 29.4579 2.10571 29.3892 2.04621L30.671 1.98212C29.887 2.77355 29.2043 3.65923 28.6385 4.61884C28.3696 5.10249 28.1311 5.60242 27.9244 6.11573C27.7164 6.63608 27.5436 7.16981 27.4071 7.71333C27.1329 8.82754 26.9991 9.97167 27.0088 11.1191C27.0042 12.3057 27.1301 13.4893 27.3842 14.6485Z" fill="#85529C"/>
<path d="M22.632 10.5286C22.1783 10.2177 21.7806 9.83232 21.4555 9.38874C21.1181 8.92974 20.8598 8.41764 20.691 7.87355C20.5092 7.33266 20.4239 6.76399 20.4393 6.19355C20.4598 5.62243 20.5599 5.05697 20.7368 4.51356L20.8284 4.19312L21.158 4.27552C21.438 4.35189 21.7107 4.45299 21.9728 4.57764C22.233 4.69707 22.4853 4.83316 22.7281 4.98505C23.2128 5.29549 23.6402 5.68729 23.9915 6.1432L24.1243 6.31257C24.1655 6.37208 24.1975 6.43617 24.2387 6.49568C24.2799 6.55518 24.3944 6.73371 24.4539 6.86646L24.6232 7.25556C24.6791 7.38416 24.7235 7.51743 24.756 7.65382C24.8366 7.92093 24.8903 8.19543 24.9162 8.47322C24.9322 8.74764 24.9322 9.02276 24.9162 9.29719L24.8109 8.89894C24.7834 8.76833 24.7467 8.63984 24.7011 8.51442C24.6217 8.26266 24.5222 8.01773 24.4035 7.78199C24.1885 7.31364 23.896 6.88494 23.5383 6.51399C23.1918 6.14293 22.7923 5.82516 22.3527 5.57099L22.014 5.39246C21.8995 5.34211 21.7897 5.2826 21.6707 5.23682C21.4446 5.13713 21.2103 5.05748 20.9703 4.99879L21.3914 4.76075C21.3273 5.00336 21.2358 5.2414 21.19 5.48859C21.1419 5.73499 21.1098 5.98422 21.0939 6.23475C21.0733 6.4861 21.0733 6.73871 21.0939 6.99006C21.0939 7.11366 21.1259 7.23725 21.1396 7.36543C21.1517 7.49196 21.1731 7.61743 21.2037 7.74079C21.3155 8.2453 21.4924 8.73311 21.7302 9.19191C21.9772 9.67133 22.2799 10.12 22.632 10.5286Z" fill="#85529C"/>
<path d="M37.7884 10.5286C38.1288 10.1203 38.4221 9.67502 38.6627 9.20106C38.8989 8.74204 39.0743 8.25424 39.1846 7.74995C39.2189 7.62719 39.2419 7.50154 39.2532 7.37458C39.2532 7.24641 39.2944 7.12281 39.299 6.99922C39.3196 6.74787 39.3196 6.49525 39.299 6.24391C39.2825 5.99141 39.2473 5.74048 39.1937 5.49317C39.1525 5.24598 39.061 5.00794 38.9969 4.76533L39.4134 5.00336C39.175 5.06211 38.9421 5.14177 38.7176 5.2414C38.5986 5.28718 38.4888 5.34669 38.3697 5.39704L38.0356 5.57557C37.5954 5.83084 37.1945 6.14846 36.8454 6.51856C36.491 6.89052 36.1989 7.31712 35.9802 7.78199C35.8634 8.0186 35.764 8.26339 35.6827 8.51441C35.6406 8.64058 35.6055 8.76895 35.5774 8.89894L35.4721 9.29719C35.4561 9.02277 35.4561 8.74764 35.4721 8.47322C35.5025 8.19608 35.5561 7.92199 35.6323 7.65382C35.6684 7.51793 35.7143 7.38484 35.7696 7.25556L35.939 6.86646C36.0035 6.73884 36.0754 6.61503 36.1542 6.49568C36.1954 6.43617 36.2274 6.37208 36.2686 6.31257L36.4013 6.1432C36.7518 5.68818 37.1776 5.29648 37.6602 4.98505C37.9143 4.83089 38.1789 4.69476 38.4521 4.57764C38.7191 4.45692 38.9964 4.36041 39.2807 4.28925L39.6103 4.20685L39.7018 4.52729C39.8796 5.07032 39.9783 5.63613 39.9948 6.20728C40.0139 6.77758 39.9302 7.34667 39.7476 7.88728C39.5766 8.42336 39.3183 8.92756 38.9831 9.37959C38.6534 9.82798 38.2493 10.2166 37.7884 10.5286Z" fill="#85529C"/>
<path d="M12.1682 17.8208C11.6492 17.5256 11.0997 17.2877 10.5294 17.1112C9.97847 16.9399 9.40752 16.8414 8.83106 16.8182C8.68785 16.8068 8.54397 16.8068 8.40076 16.8182C8.26343 16.8182 8.12152 16.8182 7.97962 16.8182C7.69831 16.8509 7.41983 16.9044 7.14649 16.9785C6.87343 17.0438 6.60565 17.1295 6.3454 17.2348C6.21308 17.285 6.08457 17.3446 5.96088 17.4133L5.58093 17.601L5.73657 17.1433C5.85142 17.3947 5.98612 17.6365 6.13941 17.8665C6.21723 17.9901 6.3042 18.1 6.3866 18.2144L6.65668 18.5486C7.02869 18.9903 7.46548 19.373 7.95215 19.6839C8.43548 19.9982 8.9676 20.2303 9.52686 20.3705C9.81268 20.4463 10.1032 20.5028 10.3966 20.5399C10.5481 20.5628 10.7012 20.5735 10.8544 20.5719L11.3121 20.604C11.0146 20.6497 10.7125 20.723 10.3966 20.7413C10.092 20.7679 9.78568 20.7679 9.48108 20.7413C9.32704 20.7295 9.17405 20.7065 9.02332 20.6726L8.56556 20.5628C8.41449 20.5216 8.27259 20.4529 8.10779 20.398L7.88806 20.311L7.67749 20.2011C7.11223 19.9069 6.60135 19.5183 6.16687 19.0521C6.06159 18.9377 5.9563 18.8141 5.85559 18.6951C5.75488 18.5761 5.66333 18.4433 5.57636 18.3106C5.39028 18.0445 5.22791 17.7627 5.09113 17.4683L4.94922 17.1524L5.24677 17.0105L5.67706 16.8045C5.81626 16.7327 5.96 16.67 6.10736 16.6168C6.40397 16.5011 6.71038 16.4122 7.02289 16.3513C7.64037 16.2128 8.27792 16.188 8.9043 16.2781C9.52206 16.3552 10.1233 16.5314 10.685 16.7999C11.2308 17.0587 11.7315 17.4034 12.1682 17.8208Z" fill="#85529C"/>
<path d="M48.4414 17.8162C48.8805 17.3906 49.3861 17.0397 49.9383 16.7771C50.5026 16.5061 51.107 16.3284 51.7282 16.2506C52.3548 16.1651 52.9915 16.1899 53.6096 16.3239C53.9218 16.3878 54.2281 16.4782 54.5251 16.594C54.6821 16.6452 54.8351 16.7079 54.9829 16.7816L55.4086 16.9876L55.7107 17.1295L55.5688 17.4408C55.432 17.7352 55.2696 18.0171 55.0836 18.2831C54.9966 18.4159 54.8959 18.5395 54.7998 18.6676C54.7036 18.7958 54.5983 18.9102 54.4885 19.0293C54.055 19.4954 53.5439 19.8826 52.9779 20.1737L52.7673 20.2835C52.6986 20.3202 52.6208 20.343 52.5476 20.3751C52.3987 20.4386 52.2457 20.4921 52.0898 20.5353L51.632 20.6497C51.4809 20.6817 51.3281 20.7046 51.1743 20.7184C50.8697 20.7453 50.5633 20.7453 50.2587 20.7184C49.951 20.6916 49.6452 20.6458 49.3432 20.5811L49.801 20.5536C49.9542 20.5511 50.1071 20.5389 50.2587 20.517C50.5512 20.484 50.8406 20.4273 51.1239 20.3476C51.6626 20.2086 52.1756 19.9846 52.6437 19.6839C53.124 19.3772 53.556 19.0008 53.9254 18.5669L54.1909 18.2373C54.2733 18.1229 54.3649 18.0084 54.4381 17.8894C54.5932 17.6589 54.728 17.4154 54.841 17.1616L55.0012 17.6193L54.6212 17.4271C54.497 17.3607 54.3686 17.3026 54.2367 17.2531C53.9742 17.1483 53.7051 17.0612 53.431 16.9922C53.1596 16.9175 52.8825 16.8654 52.6025 16.8366C52.4606 16.8366 52.3187 16.8366 52.1768 16.8137C52.0351 16.8022 51.8927 16.8022 51.751 16.8137C51.1731 16.8368 50.6006 16.9353 50.0482 17.1067C49.4873 17.2812 48.9482 17.5193 48.4414 17.8162Z" fill="#85529C"/>
<path d="M101.23 36.6165C101.23 41.7069 97.3487 44.5633 91.8189 44.5633C87.937 44.5633 84.0186 43.2084 80.9424 40.4618L84.2749 36.4701C86.582 38.3744 88.999 39.5829 91.9287 39.5829C94.2359 39.5829 95.6275 38.6673 95.6275 37.1659V37.0926C95.6275 35.6644 94.7486 34.932 90.4639 33.8333C85.3003 32.515 81.9678 31.0868 81.9678 25.9964V25.9232C81.9678 21.2723 85.7031 18.1961 90.94 18.1961C94.6753 18.1961 97.8613 19.368 100.461 21.4554L97.5318 25.7035C95.2612 24.1287 93.0274 23.1766 90.8667 23.1766C88.7061 23.1766 87.5708 24.1654 87.5708 25.4105V25.4837C87.5708 27.1683 88.6694 27.7176 93.1006 28.8529C98.3008 30.2079 101.23 32.0755 101.23 36.5433V36.6165Z" fill="#350C41"/>
<path d="M123.52 44.1971H117.953V33.2474C117.953 30.6107 116.708 29.2557 114.584 29.2557C112.46 29.2557 111.105 30.6107 111.105 33.2474V44.1971H105.539V17.4637H111.105V27.3514C112.387 25.7035 114.035 24.202 116.855 24.202C121.066 24.202 123.52 26.9852 123.52 31.4896V44.1971Z" fill="#350C41"/>
<path d="M146.666 34.932C146.666 35.4813 146.63 35.8109 146.593 36.3236H132.933C133.483 38.8504 135.24 40.1688 137.731 40.1688C139.598 40.1688 140.953 39.5829 142.491 38.1546L145.677 40.9745C143.846 43.245 141.21 44.6366 137.657 44.6366C131.761 44.6366 127.403 40.4984 127.403 34.4925V34.4193C127.403 28.8162 131.395 24.202 137.108 24.202C143.663 24.202 146.666 29.2923 146.666 34.8587V34.932ZM141.246 32.8446C140.917 30.3543 139.452 28.6698 137.108 28.6698C134.801 28.6698 133.299 30.3177 132.86 32.8446H141.246Z" fill="#350C41"/>
<path d="M169.931 36.6165C169.931 41.7069 166.049 44.5633 160.519 44.5633C156.637 44.5633 152.719 43.2084 149.643 40.4618L152.975 36.4701C155.282 38.3744 157.699 39.5829 160.629 39.5829C162.936 39.5829 164.328 38.6673 164.328 37.1659V37.0926C164.328 35.6644 163.449 34.932 159.164 33.8333C154.001 32.515 150.668 31.0868 150.668 25.9964V25.9232C150.668 21.2723 154.404 18.1961 159.64 18.1961C163.376 18.1961 166.562 19.368 169.162 21.4554L166.232 25.7035C163.962 24.1287 161.728 23.1766 159.567 23.1766C157.406 23.1766 156.271 24.1654 156.271 25.4105V25.4837C156.271 27.1683 157.37 27.7176 161.801 28.8529C167.001 30.2079 169.931 32.0755 169.931 36.5433V36.6165Z" fill="#350C41"/>
<path d="M196.505 44.1971H190.865V33.9066H180.465V44.1971H174.825V18.5623H180.465V28.7064H190.865V18.5623H196.505V44.1971Z" fill="#350C41"/>
<path d="M208.545 44.1971H202.905V18.5623H208.545V44.1971Z" fill="#350C41"/>
<path d="M234.47 23.6893H220.591V29.1458H232.822V34.2728H220.591V44.1971H214.951V18.5623H234.47V23.6893Z" fill="#350C41"/>
<path d="M258.393 23.7625H250.593V44.1971H244.953V23.7625H237.153V18.5623H258.393V23.7625Z" fill="#350C41"/>
<path d="M280.724 36.6165C280.724 41.7069 276.842 44.5633 271.313 44.5633C267.431 44.5633 263.512 43.2084 260.436 40.4618L263.769 36.4701C266.076 38.3744 268.493 39.5829 271.422 39.5829C273.73 39.5829 275.121 38.6673 275.121 37.1659V37.0926C275.121 35.6644 274.242 34.932 269.958 33.8333C264.794 32.515 261.461 31.0868 261.461 25.9964V25.9232C261.461 21.2723 265.197 18.1961 270.434 18.1961C274.169 18.1961 277.355 19.368 279.955 21.4554L277.025 25.7035C274.755 24.1287 272.521 23.1766 270.36 23.1766C268.2 23.1766 267.064 24.1654 267.064 25.4105V25.4837C267.064 27.1683 268.163 27.7176 272.594 28.8529C277.794 30.2079 280.724 32.0755 280.724 36.5433V36.6165Z" fill="#350C41"/>
</svg>
