<svg width="24" height="24" viewBox="0 0 24 24" fill="none" xmlns="http://www.w3.org/2000/svg">
<g clip-path="url(#clip0_139_127)">
<path d="M12.7489 23.9999H11.2489C11.1909 23.9815 11.1315 23.9679 11.0713 23.9591C10.0054 23.8825 8.95534 23.658 7.95132 23.2919C6.36909 22.7396 4.92009 21.862 3.69765 20.7156C2.47522 19.5693 1.50645 18.1795 0.853761 16.636C0.201068 15.0925 -0.12108 13.4293 -0.091935 11.7537C-0.0627896 10.0781 0.317004 8.42717 1.02298 6.90726C1.72896 5.38735 2.74547 4.03217 4.00703 2.929C5.26859 1.82583 6.74724 0.999141 8.34772 0.502173C9.9482 0.00520542 11.635 -0.151018 13.2996 0.0435667C14.9641 0.238151 16.5694 0.779228 18.0121 1.63195C21.2161 3.49195 23.1433 6.30475 23.8201 9.95755C23.8993 10.3847 23.9401 10.8191 24.0001 11.2511V12.7055C23.9857 12.7799 23.9713 12.8543 23.9593 12.9311C23.8945 13.4111 23.8537 13.8767 23.7625 14.3423C23.2919 16.7157 22.1137 18.891 20.383 20.5818C18.6523 22.2727 16.4502 23.3999 14.0665 23.8151C13.6297 23.8895 13.2001 23.9399 12.7489 23.9999ZM12.0001 16.5119C13.2505 16.5119 14.5009 16.5119 15.7489 16.5119C15.9441 16.5173 16.1393 16.5044 16.3321 16.4735C16.8929 16.3809 17.4018 16.0897 17.7657 15.6531C18.1296 15.2164 18.3244 14.6635 18.3145 14.0951C18.3265 12.6959 18.3145 11.2991 18.3145 9.90235C18.3151 9.71999 18.2958 9.53811 18.2569 9.35995C18.144 8.81936 17.8446 8.33568 17.4112 7.99348C16.9777 7.65128 16.4378 7.47233 15.8857 7.48795C13.2913 7.47595 10.6993 7.48795 8.10732 7.48795C7.9585 7.48552 7.8098 7.49757 7.66332 7.52395C7.10687 7.61701 6.60183 7.90543 6.23892 8.3374C5.87601 8.76937 5.67902 9.31658 5.68332 9.88074C5.66892 11.2943 5.68332 12.7079 5.68332 14.1215C5.68331 14.2961 5.70344 14.47 5.74332 14.6399C6.00012 15.7799 6.93612 16.5047 8.16012 16.5119C9.44172 16.5167 10.7233 16.5119 12.0001 16.5119Z" fill="#6C1B84"/>
<path d="M10.3535 10.0801L13.6655 12.0001L10.3535 13.9201V10.0801Z" fill="#6C1B84"/>
</g>
<defs>
<clipPath id="clip0_139_127">
<rect width="24" height="24" fill="white"/>
</clipPath>
</defs>
</svg>
